<svg height="800" width="800" stroke='currentColor' fill='currentColor' xmlns="http://www.w3.org/2000/svg" viewBox="0 0 395 395" xml:space="preserve"><path d="M298.845 216.663h-16.362a2.975 2.975 0 0 0-2.79 1.944l-2.048 5.542-14.599-34.21a19.687 19.687 0 0 0-18.1-11.95h-94.893a19.686 19.686 0 0 0-18.1 11.95l-14.599 34.215-2.052-5.548a2.974 2.974 0 0 0-2.79-1.943H96.155a2.975 2.975 0 0 0-2.975 2.975v13.687a2.975 2.975 0 0 0 2.975 2.975h15.116l-7.635 15.237a19.648 19.648 0 0 0-2.083 8.823l.01 29.453c.003 9.254 6.407 16.993 15.021 19.087v12.274a5.949 5.949 0 0 0 5.947 5.953h19.037a5.953 5.953 0 0 0 5.953-5.953v-11.696h99.955v11.696a5.949 5.949 0 0 0 5.947 5.953h19.043a5.95 5.95 0 0 0 5.951-5.953v-12.275c8.61-2.095 15.012-9.833 15.016-19.086l.013-29.453a19.649 19.649 0 0 0-2.087-8.823l-7.632-15.237h15.117a2.974 2.974 0 0 0 2.974-2.975v-13.687a2.974 2.974 0 0 0-2.973-2.975zm-145.964-20.979h89.238l13.967 32.723H138.911l13.97-32.723zm8.088 79.816a2.671 2.671 0 0 1-2.67 2.671h-28.29a2.666 2.666 0 0 1-2.668-2.671v-12.212a2.666 2.666 0 0 1 2.668-2.671h28.29a2.67 2.67 0 0 1 2.67 2.671V275.5zm106.691 0a2.67 2.67 0 0 1-2.67 2.671h-28.291a2.668 2.668 0 0 1-2.669-2.671v-12.212a2.668 2.668 0 0 1 2.669-2.671h28.291a2.668 2.668 0 0 1 2.67 2.671V275.5zM218.514 157.225c9.322-9.325 11.636-23.001 6.944-34.483l35.488-35.49a2.801 2.801 0 0 0 .809-1.748l1.184-14.615a2.789 2.789 0 0 0-.809-2.199 2.808 2.808 0 0 0-2.2-.809l-14.615 1.187a2.754 2.754 0 0 0-1.746.809l-6.058 6.059 3.983 3.979a3.633 3.633 0 0 1-5.138 5.137l-3.982-3.982-3.42 3.424 7.407 7.406a3.626 3.626 0 0 1-.005 5.132 3.626 3.626 0 0 1-5.129.003l-7.409-7.409-2.898 2.902 4.805 4.802a3.63 3.63 0 0 1 .004 5.137 3.638 3.638 0 0 1-5.138 0l-4.806-4.804-7.702 7.704c-11.488-4.694-25.165-2.374-34.485 6.942-12.401 12.407-12.401 32.514 0 44.919 12.404 12.396 32.513 12.396 44.916-.003zm-39.341-23.285a7.602 7.602 0 0 1 10.76 0l6.951 6.952a7.6 7.6 0 0 1 0 10.754 7.596 7.596 0 0 1-10.757 0l-6.954-6.952c-2.972-2.965-2.972-7.785 0-10.754z"/><path d="M313.002 0H82C36.785 0 0 36.784 0 81.998v230.993C0 358.211 36.785 395 82 395h231.002C358.216 395 395 358.211 395 312.991V81.998C395 36.784 358.216 0 313.002 0zM380 312.991C380 349.94 349.944 380 313.002 380H82c-36.944 0-67-30.06-67-67.009V81.998C15 45.055 45.056 15 82 15h231.002C349.944 15 380 45.055 380 81.998v230.993z"/></svg>